<mxfile host="app.diagrams.net" modified="2022-04-06T16:15:38.974Z" agent="5.0 (Windows NT 10.0; Win64; x64) AppleWebKit/537.36 (KHTML, like Gecko) Chrome/100.0.4896.75 Safari/537.36" etag="DY9Hf2yEyJIV9Xt2vFAn" version="17.4.0" type="github">
  <diagram id="LNGHpbQYUM5wq3o9bqYX" name="Page-1">
    <mxGraphModel dx="831" dy="438" grid="1" gridSize="10" guides="1" tooltips="1" connect="1" arrows="1" fold="1" page="1" pageScale="1" pageWidth="1169" pageHeight="827" math="0" shadow="0">
      <root>
        <mxCell id="0" />
        <mxCell id="1" parent="0" />
        <mxCell id="s8CosX6uNKLkl0jjg3Bf-1" value="Presentation Layer" style="rounded=0;whiteSpace=wrap;html=1;fillColor=#CCCCCC;" parent="1" vertex="1">
          <mxGeometry x="160" y="80" width="830" height="50" as="geometry" />
        </mxCell>
        <mxCell id="s8CosX6uNKLkl0jjg3Bf-3" value="" style="swimlane;startSize=0;fillColor=#FFFFFF;collapsible=0;" parent="1" vertex="1">
          <mxGeometry x="450" y="240" width="200" height="350" as="geometry" />
        </mxCell>
        <mxCell id="s8CosX6uNKLkl0jjg3Bf-7" value="Database" style="shape=cylinder3;whiteSpace=wrap;html=1;boundedLbl=1;backgroundOutline=1;size=15;fillColor=#FFFFFF;" parent="s8CosX6uNKLkl0jjg3Bf-3" vertex="1">
          <mxGeometry x="35" y="260" width="130" height="80" as="geometry" />
        </mxCell>
        <mxCell id="s8CosX6uNKLkl0jjg3Bf-11" value="API" style="rounded=0;whiteSpace=wrap;html=1;fillColor=#FFFFFF;" parent="s8CosX6uNKLkl0jjg3Bf-3" vertex="1">
          <mxGeometry x="35" y="46" width="120" height="42" as="geometry" />
        </mxCell>
        <mxCell id="s8CosX6uNKLkl0jjg3Bf-13" value="Data Layer" style="rounded=0;whiteSpace=wrap;html=1;fillColor=#FFFFFF;" parent="s8CosX6uNKLkl0jjg3Bf-3" vertex="1">
          <mxGeometry x="35" y="160" width="120" height="42" as="geometry" />
        </mxCell>
        <mxCell id="s8CosX6uNKLkl0jjg3Bf-16" value="" style="endArrow=classic;startArrow=classic;html=1;rounded=0;" parent="s8CosX6uNKLkl0jjg3Bf-3" edge="1">
          <mxGeometry width="50" height="50" relative="1" as="geometry">
            <mxPoint x="94.5" y="260" as="sourcePoint" />
            <mxPoint x="94.5" y="200" as="targetPoint" />
          </mxGeometry>
        </mxCell>
        <mxCell id="s8CosX6uNKLkl0jjg3Bf-19" value="" style="endArrow=classic;startArrow=classic;html=1;rounded=0;" parent="s8CosX6uNKLkl0jjg3Bf-3" edge="1">
          <mxGeometry width="50" height="50" relative="1" as="geometry">
            <mxPoint x="90" y="160" as="sourcePoint" />
            <mxPoint x="90" y="90" as="targetPoint" />
          </mxGeometry>
        </mxCell>
        <mxCell id="s8CosX6uNKLkl0jjg3Bf-22" value="Microservice 2" style="text;html=1;align=center;verticalAlign=middle;resizable=0;points=[];autosize=1;strokeColor=none;fillColor=none;" parent="s8CosX6uNKLkl0jjg3Bf-3" vertex="1">
          <mxGeometry x="45" y="10" width="90" height="20" as="geometry" />
        </mxCell>
        <mxCell id="s8CosX6uNKLkl0jjg3Bf-4" value="" style="swimlane;startSize=0;fillColor=#FFFFFF;collapsible=0;" parent="1" vertex="1">
          <mxGeometry x="720" y="242" width="200" height="348" as="geometry" />
        </mxCell>
        <mxCell id="s8CosX6uNKLkl0jjg3Bf-8" value="Database" style="shape=cylinder3;whiteSpace=wrap;html=1;boundedLbl=1;backgroundOutline=1;size=15;fillColor=#FFFFFF;" parent="s8CosX6uNKLkl0jjg3Bf-4" vertex="1">
          <mxGeometry x="35" y="258" width="130" height="80" as="geometry" />
        </mxCell>
        <mxCell id="s8CosX6uNKLkl0jjg3Bf-10" value="API" style="rounded=0;whiteSpace=wrap;html=1;fillColor=#FFFFFF;" parent="s8CosX6uNKLkl0jjg3Bf-4" vertex="1">
          <mxGeometry x="40" y="41" width="120" height="42" as="geometry" />
        </mxCell>
        <mxCell id="s8CosX6uNKLkl0jjg3Bf-14" value="Data Layer" style="rounded=0;whiteSpace=wrap;html=1;fillColor=#FFFFFF;" parent="s8CosX6uNKLkl0jjg3Bf-4" vertex="1">
          <mxGeometry x="40" y="153" width="120" height="42" as="geometry" />
        </mxCell>
        <mxCell id="s8CosX6uNKLkl0jjg3Bf-17" value="" style="endArrow=classic;startArrow=classic;html=1;rounded=0;" parent="s8CosX6uNKLkl0jjg3Bf-4" edge="1">
          <mxGeometry width="50" height="50" relative="1" as="geometry">
            <mxPoint x="99.5" y="255" as="sourcePoint" />
            <mxPoint x="99.5" y="195" as="targetPoint" />
          </mxGeometry>
        </mxCell>
        <mxCell id="s8CosX6uNKLkl0jjg3Bf-20" value="" style="endArrow=classic;startArrow=classic;html=1;rounded=0;" parent="s8CosX6uNKLkl0jjg3Bf-4" edge="1">
          <mxGeometry width="50" height="50" relative="1" as="geometry">
            <mxPoint x="99.5" y="153" as="sourcePoint" />
            <mxPoint x="99.5" y="83" as="targetPoint" />
          </mxGeometry>
        </mxCell>
        <mxCell id="s8CosX6uNKLkl0jjg3Bf-23" value="Microservice 3" style="text;html=1;align=center;verticalAlign=middle;resizable=0;points=[];autosize=1;strokeColor=none;fillColor=none;" parent="s8CosX6uNKLkl0jjg3Bf-4" vertex="1">
          <mxGeometry x="43" y="8" width="90" height="20" as="geometry" />
        </mxCell>
        <mxCell id="s8CosX6uNKLkl0jjg3Bf-5" value="" style="swimlane;startSize=0;fillColor=#FFFFFF;collapsible=0;" parent="1" vertex="1">
          <mxGeometry x="160" y="242" width="200" height="348" as="geometry" />
        </mxCell>
        <mxCell id="s8CosX6uNKLkl0jjg3Bf-6" value="Database" style="shape=cylinder3;whiteSpace=wrap;html=1;boundedLbl=1;backgroundOutline=1;size=15;fillColor=#FFFFFF;" parent="s8CosX6uNKLkl0jjg3Bf-5" vertex="1">
          <mxGeometry x="30" y="258" width="130" height="80" as="geometry" />
        </mxCell>
        <mxCell id="s8CosX6uNKLkl0jjg3Bf-9" value="API" style="rounded=0;whiteSpace=wrap;html=1;fillColor=#FFFFFF;" parent="s8CosX6uNKLkl0jjg3Bf-5" vertex="1">
          <mxGeometry x="39" y="44" width="120" height="42" as="geometry" />
        </mxCell>
        <mxCell id="s8CosX6uNKLkl0jjg3Bf-12" value="Data Layer" style="rounded=0;whiteSpace=wrap;html=1;fillColor=#FFFFFF;" parent="s8CosX6uNKLkl0jjg3Bf-5" vertex="1">
          <mxGeometry x="40" y="158" width="120" height="42" as="geometry" />
        </mxCell>
        <mxCell id="s8CosX6uNKLkl0jjg3Bf-15" value="" style="endArrow=classic;startArrow=classic;html=1;rounded=0;" parent="s8CosX6uNKLkl0jjg3Bf-5" edge="1">
          <mxGeometry width="50" height="50" relative="1" as="geometry">
            <mxPoint x="99.5" y="258" as="sourcePoint" />
            <mxPoint x="99.5" y="198" as="targetPoint" />
          </mxGeometry>
        </mxCell>
        <mxCell id="s8CosX6uNKLkl0jjg3Bf-18" value="" style="endArrow=classic;startArrow=classic;html=1;rounded=0;" parent="s8CosX6uNKLkl0jjg3Bf-5" edge="1">
          <mxGeometry width="50" height="50" relative="1" as="geometry">
            <mxPoint x="89.5" y="158" as="sourcePoint" />
            <mxPoint x="89.5" y="88" as="targetPoint" />
          </mxGeometry>
        </mxCell>
        <mxCell id="s8CosX6uNKLkl0jjg3Bf-21" value="Microservice 1" style="text;html=1;align=center;verticalAlign=middle;resizable=0;points=[];autosize=1;strokeColor=none;fillColor=none;" parent="1" vertex="1">
          <mxGeometry x="185" y="250" width="90" height="20" as="geometry" />
        </mxCell>
        <mxCell id="s8CosX6uNKLkl0jjg3Bf-24" value="" style="endArrow=classic;startArrow=classic;html=1;rounded=0;" parent="1" edge="1">
          <mxGeometry width="50" height="50" relative="1" as="geometry">
            <mxPoint x="235" y="240" as="sourcePoint" />
            <mxPoint x="340" y="140" as="targetPoint" />
          </mxGeometry>
        </mxCell>
        <mxCell id="s8CosX6uNKLkl0jjg3Bf-25" value="" style="endArrow=classic;startArrow=classic;html=1;rounded=0;" parent="1" edge="1">
          <mxGeometry width="50" height="50" relative="1" as="geometry">
            <mxPoint x="770" y="130" as="sourcePoint" />
            <mxPoint x="827.5" y="230" as="targetPoint" />
          </mxGeometry>
        </mxCell>
        <mxCell id="s8CosX6uNKLkl0jjg3Bf-26" value="" style="endArrow=classic;startArrow=classic;html=1;rounded=0;exitX=0.413;exitY=-0.008;exitDx=0;exitDy=0;exitPerimeter=0;" parent="1" edge="1">
          <mxGeometry width="50" height="50" relative="1" as="geometry">
            <mxPoint x="531.5999999999997" y="237.19999999999993" as="sourcePoint" />
            <mxPoint x="530" y="130" as="targetPoint" />
          </mxGeometry>
        </mxCell>
      </root>
    </mxGraphModel>
  </diagram>
</mxfile>
